<svg width="247" height="184" viewBox="0 0 247 184" fill="none" xmlns="http://www.w3.org/2000/svg">
<path d="M6.83438 176V149.6H12.0184V160.496H21.8904V149.6H27.0584V176H21.8904V165.04H12.0184V176H6.83438ZM30.9759 176L41.5839 149.6H46.3999L56.9919 176H51.4079L49.1679 169.984H38.7999L36.5599 176H30.9759ZM40.5759 165.44H47.4079L43.9839 156.592L40.5759 165.44ZM72.7849 176.512C70.7902 176.512 68.9182 176.16 67.1689 175.456C65.4195 174.752 63.8782 173.776 62.5449 172.528C61.2115 171.269 60.1715 169.813 59.4249 168.16C58.6782 166.507 58.3049 164.731 58.3049 162.832C58.3049 160.923 58.6782 159.141 59.4249 157.488C60.1822 155.824 61.2222 154.368 62.5449 153.12C63.8782 151.861 65.4142 150.88 67.1529 150.176C68.9022 149.472 70.7689 149.12 72.7529 149.12C74.3742 149.12 75.9155 149.349 77.3769 149.808C78.8489 150.267 80.1075 150.869 81.1529 151.616L78.9129 156.016C78.1982 155.451 77.3289 155.008 76.3049 154.688C75.2809 154.368 74.2089 154.208 73.0889 154.208C71.7769 154.208 70.5609 154.427 69.4409 154.864C68.3315 155.301 67.3609 155.909 66.5289 156.688C65.7075 157.467 65.0675 158.379 64.6089 159.424C64.1502 160.469 63.9209 161.6 63.9209 162.816C63.9209 164.032 64.1502 165.163 64.6089 166.208C65.0675 167.253 65.7075 168.165 66.5289 168.944C67.3609 169.723 68.3315 170.331 69.4409 170.768C70.5609 171.205 71.7769 171.424 73.0889 171.424C74.2089 171.424 75.2809 171.264 76.3049 170.944C77.3289 170.624 78.1982 170.181 78.9129 169.616L81.1529 174.016C80.1502 174.741 78.9182 175.339 77.4569 175.808C75.9955 176.277 74.4382 176.512 72.7849 176.512ZM85.3656 176V149.6H90.5496V160.608L100.23 149.6H106.566L95.3016 162.304L108.166 176H100.998L90.5496 164.848V176H85.3656ZM120.334 176V149.6H125.518V160.496H135.39V149.6H140.558V176H135.39V165.04H125.518V176H120.334ZM159.164 176.512C157.319 176.512 155.591 176.16 153.98 175.456C152.369 174.752 150.956 173.776 149.74 172.528C148.524 171.269 147.569 169.813 146.876 168.16C146.193 166.496 145.852 164.715 145.852 162.816C145.852 160.917 146.193 159.141 146.876 157.488C147.569 155.824 148.524 154.368 149.74 153.12C150.956 151.861 152.369 150.88 153.98 150.176C155.591 149.472 157.319 149.12 159.164 149.12C161.009 149.12 162.737 149.472 164.348 150.176C165.959 150.88 167.372 151.861 168.588 153.12C169.804 154.368 170.753 155.824 171.436 157.488C172.129 159.141 172.476 160.917 172.476 162.816C172.476 164.715 172.129 166.496 171.436 168.16C170.753 169.813 169.804 171.269 168.588 172.528C167.372 173.776 165.959 174.752 164.348 175.456C162.737 176.16 161.009 176.512 159.164 176.512ZM159.148 171.52C160.279 171.52 161.313 171.307 162.252 170.88C163.191 170.453 164.007 169.851 164.7 169.072C165.393 168.293 165.932 167.376 166.316 166.32C166.7 165.253 166.892 164.085 166.892 162.816C166.892 161.547 166.7 160.384 166.316 159.328C165.932 158.261 165.393 157.339 164.7 156.56C164.007 155.781 163.191 155.179 162.252 154.752C161.313 154.325 160.279 154.112 159.148 154.112C158.039 154.112 157.009 154.325 156.06 154.752C155.121 155.179 154.305 155.781 153.612 156.56C152.919 157.339 152.38 158.261 151.996 159.328C151.623 160.384 151.436 161.547 151.436 162.816C151.436 164.085 151.623 165.253 151.996 166.32C152.38 167.376 152.919 168.293 153.612 169.072C154.305 169.851 155.121 170.453 156.06 170.88C157.009 171.307 158.039 171.52 159.148 171.52ZM187.341 176.512C184.034 176.512 181.533 175.685 179.837 174.032C178.141 172.368 177.293 169.904 177.293 166.64V149.6H182.477V165.152C182.477 167.381 182.855 168.987 183.613 169.968C184.381 170.939 185.623 171.424 187.341 171.424C189.058 171.424 190.295 170.939 191.053 169.968C191.821 168.987 192.205 167.381 192.205 165.152V149.6H197.389V166.64C197.389 169.904 196.541 172.368 194.845 174.032C193.159 175.685 190.658 176.512 187.341 176.512ZM210.402 176.512C209.175 176.512 208.045 176.373 207.01 176.096C205.975 175.829 205.047 175.493 204.226 175.088C203.415 174.672 202.717 174.245 202.13 173.808C201.543 173.371 201.079 172.987 200.738 172.656L203.394 168.368C203.746 168.677 204.167 169.024 204.658 169.408C205.149 169.792 205.698 170.16 206.306 170.512C206.914 170.853 207.57 171.141 208.274 171.376C208.989 171.6 209.746 171.712 210.546 171.712C211.293 171.712 211.949 171.595 212.514 171.36C213.09 171.125 213.543 170.779 213.874 170.32C214.205 169.851 214.37 169.269 214.37 168.576C214.37 167.947 214.237 167.413 213.97 166.976C213.703 166.528 213.309 166.128 212.786 165.776C212.274 165.413 211.639 165.061 210.882 164.72C210.135 164.368 209.282 163.984 208.322 163.568C207.607 163.248 206.925 162.885 206.274 162.48C205.634 162.064 205.063 161.584 204.562 161.04C204.061 160.496 203.661 159.883 203.362 159.2C203.074 158.507 202.93 157.733 202.93 156.88C202.93 155.867 203.133 154.896 203.538 153.968C203.943 153.04 204.519 152.213 205.266 151.488C206.023 150.763 206.919 150.187 207.954 149.76C208.999 149.333 210.162 149.12 211.442 149.12C212.402 149.12 213.362 149.248 214.322 149.504C215.282 149.76 216.178 150.096 217.01 150.512C217.842 150.928 218.546 151.381 219.122 151.872L216.962 155.936C216.503 155.541 215.981 155.189 215.394 154.88C214.818 154.56 214.199 154.304 213.538 154.112C212.887 153.92 212.226 153.824 211.554 153.824C210.797 153.824 210.151 153.957 209.618 154.224C209.095 154.491 208.69 154.848 208.402 155.296C208.125 155.733 207.986 156.224 207.986 156.768C207.986 157.216 208.077 157.6 208.258 157.92C208.45 158.229 208.717 158.501 209.058 158.736C209.399 158.96 209.81 159.179 210.29 159.392C210.77 159.595 211.298 159.813 211.874 160.048C213.111 160.571 214.231 161.088 215.234 161.6C216.237 162.112 217.095 162.683 217.81 163.312C218.525 163.931 219.069 164.656 219.442 165.488C219.826 166.32 220.018 167.312 220.018 168.464C220.018 170.149 219.613 171.595 218.802 172.8C218.002 174.005 216.882 174.928 215.442 175.568C214.002 176.197 212.322 176.512 210.402 176.512ZM225.334 176V149.6H240.022V154.144H230.518V160.496H239.638V165.04H230.518V171.456H240.022V176H225.334Z" fill="white"/>
<path d="M140.6 127.75C135.1 126.55 130.25 123.75 125.6 119.15L121.4 115.05L122.9 113.15C125.35 110.1 127.85 104.55 128.8 100.15C129.65 96.2 129.6 95.85 128.75 91.9C128.3 89.6 127.75 86.75 127.65 85.6C127.1 80.8 129 83.45 141.6 105.25C148.45 117.1 154.3 127.15 154.55 127.65C155 128.45 154.6 128.5 149.4 128.45C146.3 128.45 142.35 128.1 140.6 127.75Z" fill="white"/>
<path d="M200 127.7C200 125.75 196.15 115.65 193.75 111.3L191.1 106.5L193.85 102.1C199.45 93.2 207.8 84.15 217 77.05L221 73.95V101.2V128.5H210.5C201.2 128.5 200 128.4 200 127.7Z" fill="white"/>
<path d="M245.6 123.75C243.75 113.9 238.35 103.4 230.95 95.25C228.25 92.3 227.95 91.7 228.2 90.35C228.35 89.55 228.5 85.45 228.5 81.3V73.75L237.35 73.85L246.25 73.95L246.4 87.25C246.45 94.55 246.45 106.5 246.4 113.9C246.25 126.55 246.2 127.05 245.6 123.75Z" fill="white"/>
<path d="M25.1 127.15C24.8 126.6 24.5 125.95 24.5 125.65C24.5 124.95 21.75 119.2 20.3 116.9C19.3 115.35 19.05 115.15 19 115.95C17.5 114 17.15 114.4 15.5 112C13.15 108.5 8.15 105.3 4.05 102.15L0.5 99.4V86.5C0.5 76.3 0.650006 73.65 1.10001 73.95C11.3 79.95 24.4 91.4499 31.05 100.3C33.2 103.15 34.1 104 34.3 103.45C34.8 102.1 35.5 102.55 35.5 104.2C35.5 105.05 34.95 106.65 34.3 107.8C31.75 112.15 28.65 120.55 27.3 126.8C26.95 128.4 26 128.55 25.1 127.15Z" fill="#DFDFDF"/>
<path d="M70 109.75C70 92.1 70.05 91 70.9 91C72.75 91 80.85 101.65 84 108.2C87.1 114.7 88 118.2 88 123.6V128.5H79H70V109.75Z" fill="#DFDFDF"/>
<path d="M92 128.3C92 128.1 92.45 127.35 92.95 126.6C93.45 125.85 98.2 117.7 103.5 108.5C115.6 87.35 119.1 81.5 119.6 81.5C120.25 81.5 120.05 84.25 119.2 86.25C117.95 89.25 116.9 95.5 117.25 98C117.95 103.25 120.8 110.35 123.75 114.2C125.15 116.05 125.55 119.1 124.25 118C123.65 117.5 123 117.85 120.55 120.1C114.45 125.8 108.65 127.95 98.65 128.35C95 128.5 92 128.5 92 128.3Z" fill="#DFDFDF"/>
<path d="M183.45 127.15C181.85 123.05 180.1 119.5 178.65 117.3L177.05 114.85L176.9 116.5L176.75 118.15L175.1 115.6C172.8 112 167.25 106.25 162.8 102.75L159 99.75V86.8V73.9L160.4 74.75C171.65 81.95 182.6 91.7 189.45 100.65C192.05 104.05 192.5 104.4 192.95 103.65C193.4 102.9 193.45 103.1 193.5 104.65C193.5 105.85 192.8 107.9 191.55 110.4C189.3 114.9 186.85 121.55 186 125.65C185.35 128.8 184.35 129.4 183.45 127.15Z" fill="#DFDFDF"/>
<path d="M228.4 110L228.25 91.5H229.3C230.7 91.5 234.6 95.75 238.2 101.15C241.5 106.2 243.45 110.1 245.2 115.15C246.35 118.45 246.5 119.7 246.4 123.65L246.25 128.25L237.4 128.4L228.5 128.5L228.4 110Z" fill="#DFDFDF"/>
<path d="M184.2 125.9C184.95 120.25 191.25 104.5 192.5 105.25C194.5 106.5 201.5 123.25 201.5 126.9V128.5H192.7H183.85L184.2 125.9Z" fill="white"/>
<path d="M121.65 114.9C116.55 107.25 114.65 98.75 116.15 90.5C116.75 87.25 117.65 84.85 120.05 80.15C121.75 76.8 123.35 74.15 123.5 74.25C124.3 74.75 129.15 83.85 129.3 85C129.35 85.7 129.75 87.85 130.2 89.75C131.2 94.25 131.2 97.65 130.2 102.15C129.25 106.3 126.45 112.35 124.25 114.85L122.75 116.55L121.65 114.9Z" fill="white"/>
<path d="M159 112.95V97.4L160.4 98.25C164.6 101 170.95 106.85 174.55 111.3L177 114.4V121.45V128.5H168H159V112.95Z" fill="white"/>
<path d="M87.35 124.25C85.7 114.75 80.05 103.5 72.7 95.25L70 92.25V83V73.75L78.9 73.9C83.75 74 87.8 74.15 87.9 74.2C87.95 74.3 87.95 86.15 87.9 100.55C87.8 116.95 87.6 125.8 87.35 124.25Z" fill="white"/>
<path d="M41.5 127.55C41.5 125.75 38.55 117.6 36.3 113.05C34.55 109.6 33.75 108.5 33 108.5C32.45 108.5 32 108.35 32 108.2C32 108.05 32.95 106.3 34.1 104.35C39.3 95.3 49.05 84.4 58.15 77.3C60.6 75.45 62.6 74 62.65 74.05C62.7 74.15 62.7 86.45 62.6 101.4L62.45 128.5H52C42 128.5 41.5 128.45 41.5 127.55Z" fill="white"/>
<path d="M0.5 112.95V97.4L1.89999 98.25C6.49999 101.2 14.2 108.55 17.55 113.15C18.85 114.9 18.95 115.45 18.8 118.2C18.7 119.85 18.6 122.9 18.55 124.9L18.5 128.5H9.5H0.5V112.95Z" fill="white"/>
<path d="M25.75 126.2C26.5 121.15 30 111.45 32.7 106.95L33.9 104.9L34.9 106.35C38.1 110.9 43 123.25 43 126.8V128.5H34.2H25.4L25.75 126.2Z" fill="white"/>
<path d="M79.9 53.65L74.5 53.45V51.4V49.35L73.25 50.5C72.6 51.15 71.9 52.05 71.7 52.6C71.45 53.45 70.75 53.5 62.6 53.5L53.75 53.45L56.9 50.5C66.05 42 79.45 37.55 91.85 39C102.1 40.15 112.45 44.95 118.75 51.45L120.75 53.5L112 53.4L103.25 53.25L103.4 51.4C103.5 50.35 103.35 49.5 103.1 49.5C102.4 49.5 100.5 51.95 100.5 52.8C100.5 53.35 99.3 53.5 94.75 53.5H89V51.5C89 49 87.9 49.25 86.45 52.05C85.9 53.15 85.45 53.95 85.35 53.9C85.3 53.85 82.85 53.7 79.9 53.65Z" fill="#DFDFDF"/>
<path d="M125.7 42.8C127.25 20.15 144.7 2.29998 166.95 0.549978C169.85 0.299978 172.4 0.199978 172.55 0.299978C173.05 0.599978 160.45 12.75 159.85 12.55C159.5 12.45 158.35 12.25 157.25 12.15L155.25 11.85L156.75 13.45L158.2 15L154.3 18.95C150.75 22.5 150.25 22.85 149.15 22.45C147.75 21.95 145.5 21.85 145.5 22.3C145.5 22.5 146.1 23.2 146.8 23.85L148.15 25.1L144.45 28.9C142.4 31 140.7 32.8 140.7 32.9C140.65 32.95 139.55 32.8 138.3 32.45C137 32.15 135.8 32 135.65 32.2C135.45 32.35 135.9 33.15 136.65 33.9L138 35.3L131.9 41.4C128.6 44.75 125.75 47.5 125.6 47.5C125.45 47.5 125.5 45.4 125.7 42.8Z" fill="#DFDFDF"/>
<path d="M126.6 53.0999C126.7 52.8499 128.15 51.3999 129.9 49.8499C144.1 37.2499 166.25 35.1499 182.3 44.7999C185.85 46.9499 189.75 49.8999 191.7 51.9499L193.2 53.4999H184.4H175.65L174.2 51.3999L172.75 49.2499L172.6 51.3999L172.45 53.4999H166.75C161.65 53.4999 161.05 53.3999 160.8 52.5999C160.6 52.0499 159.9 51.1499 159.25 50.4999L158 49.3499V51.3999V53.4999H152.25C148 53.4999 146.5 53.3499 146.5 52.8999C146.45 52.2499 144.25 49.4999 143.75 49.4999C143.6 49.4999 143.5 50.3999 143.5 51.4999V53.4999H134.95C130.25 53.4999 126.5 53.2999 126.6 53.0999Z" fill="white"/>
<path d="M114.75 41.5L108.8 35.5L110.25 34C111.05 33.2 111.55 32.35 111.35 32.2C111.2 32 110 32.15 108.7 32.45L106.35 33.05L102.4 29.1499L98.5 25.3L100.15 23.6L101.75 21.85L99.75 22.1499C98.65 22.2999 97.4 22.55 97 22.7C96.5 22.9 94.95 21.7 92.3 19.05L88.3 15.05L89.65 14C91.75 12.35 91.35 11.7999 88.35 12.1499L85.7 12.5L79.8 6.54996C75.05 1.74996 74.05 0.599958 74.8 0.299958C76.1 -0.200042 85.15 0.949961 88.9 2.09996C97.6 4.74996 106.35 10.7 111.6 17.5C115.25 22.2 118.7 29.05 120 34.2C121.1 38.5499 121.9 47.5 121.2 47.5C120.95 47.5 118.05 44.8 114.75 41.5Z" fill="white"/>
</svg>
