<svg width="247" height="185" viewBox="0 0 247 185" fill="none" xmlns="http://www.w3.org/2000/svg">
<path d="M25.1 127.5C24.8 126.95 24.5 126.3 24.5 126C24.5 125.3 21.75 119.55 20.3 117.25C19.3 115.7 19.05 115.5 19 116.3C19 118.2 18.35 118 16.7 115.6C14.35 112.1 8.15 105.65 4.05 102.5L0.5 99.75V86.85C0.5 76.65 0.650006 74 1.10001 74.3C11.3 80.3 24.4 91.8 31.05 100.65C33.2 103.5 34.1 104.35 34.3 103.8C34.8 102.45 35.5 102.9 35.5 104.55C35.5 105.4 34.95 107 34.3 108.15C31.75 112.5 28.65 120.9 27.3 127.15C26.95 128.75 26 128.9 25.1 127.5Z" fill="#FB9AB0"/>
<path d="M70 109.75C70 92.1 70.05 91 70.9 91C72.75 91 80.85 101.65 84 108.2C87.1 114.7 88 118.2 88 123.6V128.5H79H70V109.75Z" fill="#FB9AB0"/>
<path d="M92 128.3C92 128.1 92.45 127.35 92.95 126.6C93.45 125.85 98.2 117.7 103.5 108.5C115.6 87.35 119.1 81.5 119.6 81.5C120.25 81.5 120.05 84.25 119.2 86.25C117.95 89.25 116.9 95.5 117.25 98C117.95 103.25 120.8 110.35 123.75 114.2C125.15 116.05 125.55 119.1 124.25 118C123.65 117.5 123 117.85 120.55 120.1C114.45 125.8 108.65 127.95 98.65 128.35C95 128.5 92 128.5 92 128.3Z" fill="#FB9AB0"/>
<path d="M183.45 127.15C181.85 123.05 180.1 119.5 178.65 117.3L177.05 114.85L176.9 116.5L176.75 118.15L175.1 115.6C172.8 112 167.25 106.25 162.8 102.75L159 99.75V86.8V73.9L160.4 74.75C171.65 81.95 182.6 91.7 189.45 100.65C192.05 104.05 192.5 104.4 192.95 103.65C193.4 102.9 193.45 103.1 193.5 104.65C193.5 105.85 192.8 107.9 191.55 110.4C189.3 114.9 186.85 121.55 186 125.65C185.35 128.8 184.35 129.4 183.45 127.15Z" fill="#FB9AB0"/>
<path d="M228.4 110L228.25 91.5H229.3C230.7 91.5 234.6 95.75 238.2 101.15C241.5 106.2 243.45 110.1 245.2 115.15C246.35 118.45 246.5 119.7 246.4 123.65L246.25 128.25L237.4 128.4L228.5 128.5L228.4 110Z" fill="#FB9AB0"/>
<path d="M79.9 53.65L74.5 53.45V51.4V49.3501L73.25 50.5001C72.6 51.1501 71.9 52.0501 71.7 52.6001C71.45 53.4501 70.75 53.5001 62.6 53.5001L53.75 53.45L56.9 50.5001C66.05 42.0001 79.45 37.5501 91.85 39.0001C102.1 40.1501 112.45 44.95 118.75 51.45L120.75 53.5001L112 53.4L103.25 53.2501L103.4 51.4C103.5 50.35 103.35 49.5001 103.1 49.5001C102.4 49.5001 100.5 51.9501 100.5 52.8001C100.5 53.3501 99.3 53.5001 94.75 53.5001H89V51.5001C89 49.0001 87.9 49.2501 86.45 52.0501C85.9 53.1501 85.45 53.95 85.35 53.9C85.3 53.85 82.85 53.7 79.9 53.65Z" fill="#FB9AB0"/>
<path d="M125.7 42.8C127.25 20.15 144.7 2.30004 166.95 0.550039C169.85 0.300039 172.4 0.200039 172.55 0.300039C173.05 0.600039 160.45 12.75 159.85 12.55C159.5 12.45 158.35 12.25 157.25 12.15L155.25 11.85L156.75 13.45L158.2 15L154.3 18.95C150.75 22.5 150.25 22.85 149.15 22.45C147.75 21.95 145.5 21.85 145.5 22.3C145.5 22.5 146.1 23.2 146.8 23.85L148.15 25.1L144.45 28.9C142.4 31 140.7 32.8 140.7 32.9C140.65 32.95 139.55 32.8 138.3 32.45C137 32.15 135.8 32 135.65 32.2C135.45 32.35 135.9 33.15 136.65 33.9L138 35.3L131.9 41.4C128.6 44.75 125.75 47.5 125.6 47.5C125.45 47.5 125.5 45.4 125.7 42.8Z" fill="#FB9AB0"/>
<path d="M0.5 112.95V97.4L1.89999 98.25C6.49999 101.2 14.2 108.55 17.55 113.15C18.85 114.9 18.95 115.45 18.8 118.2C18.7 119.85 18.6 122.9 18.55 124.9L18.5 128.5H9.5H0.5V112.95Z" fill="#4DDED4"/>
<path d="M41.5 127.55C41.5 125.75 38.55 117.6 36.3 113.05C34.55 109.6 33.75 108.5 33 108.5C32.45 108.5 32 108.35 32 108.2C32 108.05 32.95 106.3 34.1 104.35C39.3 95.3 49.05 84.4 58.15 77.3C60.6 75.45 62.6 74 62.65 74.05C62.7 74.15 62.7 86.45 62.6 101.4L62.45 128.5H52C42 128.5 41.5 128.45 41.5 127.55Z" fill="#4DDED4"/>
<path d="M140.6 127.75C135.1 126.55 130.25 123.75 125.6 119.15L121.4 115.05L122.9 113.15C125.35 110.1 127.85 104.55 128.8 100.15C129.65 96.2 129.6 95.85 128.75 91.9C128.3 89.6 127.75 86.75 127.65 85.6C127.1 80.8 129 83.45 141.6 105.25C148.45 117.1 154.3 127.15 154.55 127.65C155 128.45 154.6 128.5 149.4 128.45C146.3 128.45 142.35 128.1 140.6 127.75Z" fill="#4DDED4"/>
<path d="M159 112.95V97.4L160.4 98.25C164.6 101 170.95 106.85 174.55 111.3L177 114.4V121.45V128.5H168H159V112.95Z" fill="#4DDED4"/>
<path d="M200 127.7C200 125.75 196.15 115.65 193.75 111.3L191.1 106.5L193.85 102.1C199.45 93.2 207.8 84.15 217 77.05L221 73.95V101.2V128.5H210.5C201.2 128.5 200 128.4 200 127.7Z" fill="#4DDED4"/>
<path d="M245.6 123.75C243.75 113.9 238.35 103.4 230.95 95.25C228.25 92.3 227.95 91.7 228.2 90.35C228.35 89.55 228.5 85.45 228.5 81.3V73.75L237.35 73.85L246.25 73.95L246.4 87.25C246.45 94.55 246.45 106.5 246.4 113.9C246.25 126.55 246.2 127.05 245.6 123.75Z" fill="#4DDED4"/>
<path d="M87.35 124.25C85.7 114.75 80.05 103.5 72.7 95.25L70 92.25V83V73.75L78.9 73.9C83.75 74 87.8 74.15 87.9 74.2C87.95 74.3 87.95 86.15 87.9 100.55C87.8 116.95 87.6 125.8 87.35 124.25Z" fill="#4DDED4"/>
<path d="M126.6 53.1C126.7 52.85 128.15 51.4 129.9 49.85C144.1 37.25 166.25 35.15 182.3 44.8C185.85 46.95 189.75 49.9 191.7 51.95L193.2 53.5H184.4H175.65L174.2 51.4L172.75 49.25L172.6 51.4L172.45 53.5H166.75C161.65 53.5 161.05 53.4 160.8 52.6C160.6 52.05 159.9 51.15 159.25 50.5L158 49.35V51.4V53.5H152.25C148 53.5 146.5 53.35 146.5 52.9C146.45 52.25 144.25 49.5 143.75 49.5C143.6 49.5 143.5 50.4 143.5 51.5V53.5H134.95C130.25 53.5 126.5 53.3 126.6 53.1Z" fill="#4DDED4"/>
<path d="M114.75 41.5L108.8 35.5L110.25 34C111.05 33.2 111.55 32.35 111.35 32.2C111.2 32 110 32.15 108.7 32.45L106.35 33.05L102.4 29.15L98.5 25.3L100.15 23.6L101.75 21.85L99.75 22.15C98.65 22.3 97.4 22.55 97 22.7C96.5 22.9 94.95 21.7 92.3 19.05L88.3 15.05L89.65 14C91.75 12.35 91.35 11.8 88.35 12.15L85.7 12.5L79.8 6.55002C75.05 1.75002 74.05 0.600019 74.8 0.300019C76.1 -0.199981 85.15 0.950022 88.9 2.10002C97.6 4.75002 106.35 10.7 111.6 17.5C115.25 22.2 118.7 29.05 120 34.2C121.1 38.55 121.9 47.5 121.2 47.5C120.95 47.5 118.05 44.8 114.75 41.5Z" fill="#4DDED4"/>
<path d="M25.75 126.2C26.5 121.15 30 111.45 32.7 106.95L33.9 104.9L34.9 106.35C38.1 110.9 43 123.25 43 126.8V128.5H34.2H25.4L25.75 126.2Z" fill="#44C8BE"/>
<path d="M184.2 125.9C184.95 120.25 191.25 104.5 192.5 105.25C194.5 106.5 201.5 123.25 201.5 126.9V128.5H192.7H183.85L184.2 125.9Z" fill="#44C8BE"/>
<path d="M121.65 114.9C116.55 107.25 114.65 98.75 116.15 90.5C116.75 87.25 117.65 84.85 120.05 80.15C121.75 76.8 123.35 74.15 123.5 74.25C124.3 74.75 129.15 83.85 129.3 85C129.35 85.7 129.75 87.85 130.2 89.75C131.2 94.25 131.2 97.65 130.2 102.15C129.25 106.3 126.45 112.35 124.25 114.85L122.75 116.55L121.65 114.9Z" fill="#44C8BE"/>
<path d="M6.83438 177V150.6H12.0184V161.496H21.8904V150.6H27.0584V177H21.8904V166.04H12.0184V177H6.83438ZM30.9759 177L41.5839 150.6H46.3999L56.9919 177H51.4079L49.1679 170.984H38.7999L36.5599 177H30.9759ZM40.5759 166.44H47.4079L43.9839 157.592L40.5759 166.44ZM72.7849 177.512C70.7902 177.512 68.9182 177.16 67.1689 176.456C65.4195 175.752 63.8782 174.776 62.5449 173.528C61.2115 172.269 60.1715 170.813 59.4249 169.16C58.6782 167.507 58.3049 165.731 58.3049 163.832C58.3049 161.923 58.6782 160.141 59.4249 158.488C60.1822 156.824 61.2222 155.368 62.5449 154.12C63.8782 152.861 65.4142 151.88 67.1529 151.176C68.9022 150.472 70.7689 150.12 72.7529 150.12C74.3742 150.12 75.9155 150.349 77.3769 150.808C78.8489 151.267 80.1075 151.869 81.1529 152.616L78.9129 157.016C78.1982 156.451 77.3289 156.008 76.3049 155.688C75.2809 155.368 74.2089 155.208 73.0889 155.208C71.7769 155.208 70.5609 155.427 69.4409 155.864C68.3315 156.301 67.3609 156.909 66.5289 157.688C65.7075 158.467 65.0675 159.379 64.6089 160.424C64.1502 161.469 63.9209 162.6 63.9209 163.816C63.9209 165.032 64.1502 166.163 64.6089 167.208C65.0675 168.253 65.7075 169.165 66.5289 169.944C67.3609 170.723 68.3315 171.331 69.4409 171.768C70.5609 172.205 71.7769 172.424 73.0889 172.424C74.2089 172.424 75.2809 172.264 76.3049 171.944C77.3289 171.624 78.1982 171.181 78.9129 170.616L81.1529 175.016C80.1502 175.741 78.9182 176.339 77.4569 176.808C75.9955 177.277 74.4382 177.512 72.7849 177.512ZM85.3656 177V150.6H90.5496V161.608L100.23 150.6H106.566L95.3016 163.304L108.166 177H100.998L90.5496 165.848V177H85.3656ZM120.334 177V150.6H125.518V161.496H135.39V150.6H140.558V177H135.39V166.04H125.518V177H120.334ZM159.164 177.512C157.319 177.512 155.591 177.16 153.98 176.456C152.369 175.752 150.956 174.776 149.74 173.528C148.524 172.269 147.569 170.813 146.876 169.16C146.193 167.496 145.852 165.715 145.852 163.816C145.852 161.917 146.193 160.141 146.876 158.488C147.569 156.824 148.524 155.368 149.74 154.12C150.956 152.861 152.369 151.88 153.98 151.176C155.591 150.472 157.319 150.12 159.164 150.12C161.009 150.12 162.737 150.472 164.348 151.176C165.959 151.88 167.372 152.861 168.588 154.12C169.804 155.368 170.753 156.824 171.436 158.488C172.129 160.141 172.476 161.917 172.476 163.816C172.476 165.715 172.129 167.496 171.436 169.16C170.753 170.813 169.804 172.269 168.588 173.528C167.372 174.776 165.959 175.752 164.348 176.456C162.737 177.16 161.009 177.512 159.164 177.512ZM159.148 172.52C160.279 172.52 161.313 172.307 162.252 171.88C163.191 171.453 164.007 170.851 164.7 170.072C165.393 169.293 165.932 168.376 166.316 167.32C166.7 166.253 166.892 165.085 166.892 163.816C166.892 162.547 166.7 161.384 166.316 160.328C165.932 159.261 165.393 158.339 164.7 157.56C164.007 156.781 163.191 156.179 162.252 155.752C161.313 155.325 160.279 155.112 159.148 155.112C158.039 155.112 157.009 155.325 156.06 155.752C155.121 156.179 154.305 156.781 153.612 157.56C152.919 158.339 152.38 159.261 151.996 160.328C151.623 161.384 151.436 162.547 151.436 163.816C151.436 165.085 151.623 166.253 151.996 167.32C152.38 168.376 152.919 169.293 153.612 170.072C154.305 170.851 155.121 171.453 156.06 171.88C157.009 172.307 158.039 172.52 159.148 172.52ZM187.341 177.512C184.034 177.512 181.533 176.685 179.837 175.032C178.141 173.368 177.293 170.904 177.293 167.64V150.6H182.477V166.152C182.477 168.381 182.855 169.987 183.613 170.968C184.381 171.939 185.623 172.424 187.341 172.424C189.058 172.424 190.295 171.939 191.053 170.968C191.821 169.987 192.205 168.381 192.205 166.152V150.6H197.389V167.64C197.389 170.904 196.541 173.368 194.845 175.032C193.159 176.685 190.658 177.512 187.341 177.512ZM210.402 177.512C209.175 177.512 208.045 177.373 207.01 177.096C205.975 176.829 205.047 176.493 204.226 176.088C203.415 175.672 202.717 175.245 202.13 174.808C201.543 174.371 201.079 173.987 200.738 173.656L203.394 169.368C203.746 169.677 204.167 170.024 204.658 170.408C205.149 170.792 205.698 171.16 206.306 171.512C206.914 171.853 207.57 172.141 208.274 172.376C208.989 172.6 209.746 172.712 210.546 172.712C211.293 172.712 211.949 172.595 212.514 172.36C213.09 172.125 213.543 171.779 213.874 171.32C214.205 170.851 214.37 170.269 214.37 169.576C214.37 168.947 214.237 168.413 213.97 167.976C213.703 167.528 213.309 167.128 212.786 166.776C212.274 166.413 211.639 166.061 210.882 165.72C210.135 165.368 209.282 164.984 208.322 164.568C207.607 164.248 206.925 163.885 206.274 163.48C205.634 163.064 205.063 162.584 204.562 162.04C204.061 161.496 203.661 160.883 203.362 160.2C203.074 159.507 202.93 158.733 202.93 157.88C202.93 156.867 203.133 155.896 203.538 154.968C203.943 154.04 204.519 153.213 205.266 152.488C206.023 151.763 206.919 151.187 207.954 150.76C208.999 150.333 210.162 150.12 211.442 150.12C212.402 150.12 213.362 150.248 214.322 150.504C215.282 150.76 216.178 151.096 217.01 151.512C217.842 151.928 218.546 152.381 219.122 152.872L216.962 156.936C216.503 156.541 215.981 156.189 215.394 155.88C214.818 155.56 214.199 155.304 213.538 155.112C212.887 154.92 212.226 154.824 211.554 154.824C210.797 154.824 210.151 154.957 209.618 155.224C209.095 155.491 208.69 155.848 208.402 156.296C208.125 156.733 207.986 157.224 207.986 157.768C207.986 158.216 208.077 158.6 208.258 158.92C208.45 159.229 208.717 159.501 209.058 159.736C209.399 159.96 209.81 160.179 210.29 160.392C210.77 160.595 211.298 160.813 211.874 161.048C213.111 161.571 214.231 162.088 215.234 162.6C216.237 163.112 217.095 163.683 217.81 164.312C218.525 164.931 219.069 165.656 219.442 166.488C219.826 167.32 220.018 168.312 220.018 169.464C220.018 171.149 219.613 172.595 218.802 173.8C218.002 175.005 216.882 175.928 215.442 176.568C214.002 177.197 212.322 177.512 210.402 177.512ZM225.334 177V150.6H240.022V155.144H230.518V161.496H239.638V166.04H230.518V172.456H240.022V177H225.334Z" fill="black"/>
</svg>
